<svg xmlns="http://www.w3.org/2000/svg" enable-background="new 0 0 512 512" viewBox="0 0 512 512" id="books"><path d="M157.7,452.5c-32,0-64.1,0-96.1,0c-7.3,0-14.6,0-21.9,0c-4.8,0-9.9,0.6-13.5-3.4c-4.1-4.7-2.5-14.4-2.5-20.2
					c0-32.9,0-65.8,0-98.7c0-41.2,0-82.3,0-123.5c0-20.2-1-40.7,0-60.9c0.4-7.4,6.2-10.1,12.7-10.1c6.1,0,12.3,0,18.4,0
					c20.3,0,40.6,0,60.8,0c13.6,0,27.3-0.3,40.9,0c11,0.2,11.1,9.5,11.1,17.6c0,29.9,0,59.8,0,89.7c0,41.8,0,83.6,0,125.4
					c0,24.4,0.2,48.8,0,73.2C167.5,447.4,164,452.2,157.7,452.5c-9.6,0.4-9.7,15.4,0,15c13.9-0.5,24.5-11.1,24.9-25.1
					c0.1-2.2,0-4.4,0-6.6c0-12.1,0-24.3,0-36.4c0-41.2,0-82.4,0-123.5c0-36.6,0-73.2,0-109.9c0-6.6,0.2-13.3,0-19.9
					c-0.4-14.2-11.3-25.1-25.5-25.5c-3.9-0.1-7.9,0-11.8,0c-36.3,0-72.5,0-108.8,0c-16.5,0-27.7,11.1-27.7,27.6c0,9.8,0,19.7,0,29.5
					c0,39.4,0,78.9,0,118.3c0,39,0,77.9,0,116.9c0,9.2,0,18.4,0,27.6c0,7.1,1.9,13.8,6.9,19.1c6,6.3,13.8,7.8,22,7.8
					c36.7,0,73.4,0,110.1,0c3.3,0,6.7,0,10,0C167.3,467.5,167.3,452.5,157.7,452.5z"></path><path d="M254,452.5c-15.7,0-31.4,0-47.2,0c-5.2,0-12.8,1.3-17.8-0.7c-4.8-1.9-6.4-6.3-6.5-11c-0.1-22,0-44,0-66
					c0-40.1,0-80.1,0-120.2c0-38.7,0-77.5,0-116.2c0-12.7,0-25.4,0-38c0-4.8-0.3-9.7,0-14.5c0.6-8.7,7.7-9.8,14.7-9.8
					c9.2,0,18.4,0,27.6,0c8.6,0,17.1,0,25.7,0c6.8,0,12.9,2.7,13.3,10.5c0.8,18.4,0,37,0,55.4c0,39,0,78.1,0,117.1
					c0,39.9,0,79.8,0,119.7c0,21,0.2,42,0,63C263.8,447.5,260.1,452.3,254,452.5c-9.6,0.4-9.7,15.4,0,15c13.9-0.5,24.5-11.1,24.9-25
					c0.1-1.8,0-3.7,0-5.5c0-10.2,0-20.5,0-30.7c0-37.8,0-75.5,0-113.3c0-42.5,0-84.9,0-127.4c0-25.3,0-50.5,0-75.8
					c0-2.9,0-5.7-0.6-8.7c-2.6-12.9-14.4-20-26.8-20c-18.2,0-36.3,0-54.5,0c-10.2,0-19.9,2.4-25.7,11.7c-2.9,4.6-3.7,9.8-3.7,15.1
					c0,8.4,0,16.7,0,25.1c0,35.8,0,71.7,0,107.5c0,43.1,0,86.2,0,129.3c0,28.4,0,56.9,0,85.3c0,2.3-0.1,4.5,0,6.8
					c0.3,10.7,6.3,20.3,16.6,24.1c6.5,2.4,14.3,1.5,21.1,1.5c10.5,0,21.1,0,31.6,0c5.7,0,11.5,0,17.2,0
					C263.6,467.5,263.6,452.5,254,452.5z"></path><path d="M322.1,452.5c-7.6,0-15.3,0-22.9,0c-7.2,0-17.5,1.7-20-7.4c-1.2-4.5-0.4-10.1-0.4-14.6c0-27.7,0-55.5,0-83.2
					c0-40.4,0-80.7,0-121.1c0-36.4,0-72.7,0-109.1c0-15.7-0.8-31.7,0-47.4c0.5-10.5,10.3-10.1,18.1-10.1c8.2,0,16.4-0.3,24.6,0
					c10.5,0.3,10.4,9.3,10.4,16.9c0,25.1,0,50.3,0,75.4c0,39.6,0,79.1,0,118.7c0,37.8,0,75.6,0,113.4c0,19.3,0.2,38.5,0,57.8
					C331.9,447.6,328.2,452.3,322.1,452.5c-9.6,0.4-9.7,15.4,0,15c13.9-0.5,24.4-11,24.9-25c0-1.6,0-3.2,0-4.8c0-9.4,0-18.9,0-28.3
					c0-35.4,0-70.9,0-106.3c0-42.2,0-84.4,0-126.6c0-30.5,0-61,0-91.5c0-5.1,0.2-10.2,0-15.3c-0.4-14.1-11.2-24.7-25.3-25.1
					c-8.2-0.2-16.5,0-24.8,0c-11,0-21.5,0.8-28.5,10.8c-3.3,4.8-4.5,10.3-4.5,16c0,7.5,0,15,0,22.5c0,33.3,0,66.6,0,99.9
					c0,42.3,0,84.7,0,127c0,33,0,66,0,99.1c0,7.1-0.1,14.2,0,21.3c0,6.9,2.1,13.5,6.9,18.6c7.8,8.3,18.1,7.8,28.5,7.8
					c7.6,0,15.3,0,22.9,0C331.7,467.5,331.7,452.5,322.1,452.5z"></path><path d="M402.4,452.5c-13.7,0-27.4,0-41.2,0c-6.9,0-13.9-1.6-14.3-10.1c-0.1-1.1,0-2.1,0-3.2c0-20.9,0-41.8,0-62.8
					c0-35.5,0-70.9,0-106.4c0-33.2,0-66.4,0-99.6c0-10.7,0-21.4,0-32.1c0-4.3-0.5-8.9,0.1-13.1c1.1-8.1,8.6-8.7,15-8.7
					c8.5,0,17,0,25.4,0c9.3,0,24.7-2.7,24.9,11c0.2,18.2,0,36.4,0,54.6c0,34.5,0,69,0,103.5c0,34.5,0,68.9,0,103.4
					c0,17.6,0.2,35.3,0,52.9C412.2,447.8,408.4,452.3,402.4,452.5c-9.6,0.4-9.7,15.4,0,15c13.8-0.5,24.4-11,24.9-24.9
					c0-1.3,0-2.7,0-4c0-8.5,0-17,0-25.5c0-32.5,0-65.1,0-97.6c0-37.5,0-75.1,0-112.6c0-23.8,0-47.5,0-71.3c0-1.6,0-3.2,0-4.8
					c-0.3-11.4-7.7-21.7-19.1-24.5c-6.3-1.5-13.5-0.7-19.9-0.7c-8.9,0-17.8,0-26.7,0c-9.4,0-18.1,1.7-24.3,9.5
					c-3.9,4.9-5.4,10.7-5.5,16.8c-0.1,6.8,0,13.7,0,20.5c0,30.6,0,61.1,0,91.7c0,37.9,0,75.8,0,113.7c0,26.4,0,52.8,0,79.2
					c0,7.8-0.6,15.6,3.8,22.6c5.5,8.9,14.8,11.9,24.7,11.9c8.4,0,16.8,0,25.2,0c5.6,0,11.2,0,16.8,0
					C412.1,467.5,412.1,452.5,402.4,452.5z"></path><path d="M478.2 452.5c-10.5 0-21.1 0-31.6 0-8.2 0-19 .8-19.3-10.5-.4-13.4 0-26.9 0-40.3 0-51.6 0-103.3 0-154.9 0-8 0-16 0-24 0-4-.7-9.2 1.4-12.8 2.7-4.7 7.4-5 12.2-5 6 0 12 0 18 0 5.7 0 11.4 0 17.1 0 5.2 0 10 1.4 11.9 6.8 1.2 3.5.6 8.2.6 11.8 0 8.2 0 16.4 0 24.7 0 25.3 0 50.7 0 76 0 26.3 0 52.7 0 79 0 12.9.5 26 0 38.9C488.1 447.9 484.1 452.3 478.2 452.5c-9.6.4-9.7 15.4 0 15 15.1-.6 25.1-12.3 25.2-27 0-6.2 0-12.4 0-18.6 0-24.9 0-49.9 0-74.8 0-43.8.6-87.6 0-131.3-.2-15.1-11.7-25.8-26.6-25.9-12-.1-23.9 0-35.9 0-6.9 0-13.3 1-19 5.5-6.2 4.9-9.3 12.1-9.6 20-.1 4.5 0 9 0 13.4 0 52.3 0 104.6 0 156.9 0 17.9 0 35.9 0 53.8 0 12.1 6 23.6 18.5 27 4.8 1.3 10 .9 15 .9 6.9 0 13.8 0 20.7 0 3.9 0 7.8 0 11.7 0C487.9 467.5 487.9 452.5 478.2 452.5zM117.9 311.4c-12.9 0-25.9 0-38.8 0-6.1 0-12.5.4-15.8-6-1.7-3.2-1.3-6.8-1.3-10.3 0-30 0-59.9 0-89.9 0-7.6-2.6-21.8 4.5-27 4.3-3.2 10.9-2.2 16-2.2 8.1 0 16.2 0 24.4 0 4.8 0 11.2-1 15.7 1 5.3 2.4 6.5 7.5 6.5 12.7 0 12.3 0 24.5 0 36.8 0 16.7 0 33.4 0 50 0 5.9 0 11.8 0 17.7 0 2.9.4 6.5-.5 9.3C127.1 308.3 122.8 311.2 117.9 311.4c-9.6.4-9.7 15.4 0 15 14.6-.5 25.8-11.6 26.2-26.3.1-3 0-6 0-9 0-16.5 0-32.9 0-49.4 0-15.8 0-31.5 0-47.3 0-4 .2-8-.5-11.9-2.2-12.7-13.6-21.2-26.1-21.5-14.3-.4-28.7-.1-43 0-11.3.1-21.4 5.9-25.7 16.7-1.9 4.8-1.9 9.7-1.9 14.7 0 32.2 0 64.4 0 96.5 0 3.6-.1 7.3 0 10.9.3 12.2 8.5 23.4 20.8 25.9 6.2 1.2 12.9.6 19.1.6 8.7 0 17.4 0 26.1 0 1.6 0 3.3 0 4.9 0C127.6 326.4 127.6 311.4 117.9 311.4zM58.5 373.6c24.7 0 49.4 0 74.2 0 9.7 0 9.7-15 0-15-24.7 0-49.4 0-74.2 0C48.8 358.6 48.8 373.6 58.5 373.6L58.5 373.6zM58.5 400.3c24.7 0 49.4 0 74.2 0 9.7 0 9.7-15 0-15-24.7 0-49.4 0-74.2 0C48.8 385.3 48.8 400.3 58.5 400.3L58.5 400.3zM58.5 427c24.7 0 49.4 0 74.2 0 9.7 0 9.7-15 0-15-24.7 0-49.4 0-74.2 0C48.8 412 48.8 427 58.5 427L58.5 427zM200.3 224.5c15.2 0 30.5 0 45.7 0 9.7 0 9.7-15 0-15-15.2 0-30.5 0-45.7 0C190.7 209.5 190.6 224.5 200.3 224.5L200.3 224.5zM200.3 251.2c15.2 0 30.5 0 45.7 0 9.7 0 9.7-15 0-15-15.2 0-30.5 0-45.7 0C190.7 236.2 190.6 251.2 200.3 251.2L200.3 251.2zM200.3 277.9c15.2 0 30.5 0 45.7 0 9.7 0 9.7-15 0-15-15.2 0-30.5 0-45.7 0C190.7 262.9 190.6 277.9 200.3 277.9L200.3 277.9zM297.9 80.2c0 46.1 0 92.2 0 138.2 0 6.5 0 13 0 19.4 0 9.7 15 9.7 15 0 0-46.1 0-92.2 0-138.2 0-6.5 0-13 0-19.4C312.9 70.6 297.9 70.6 297.9 80.2L297.9 80.2zM297.9 270.4c0 14.1 0 28.2 0 42.3 0 9.7 15 9.7 15 0 0-14.1 0-28.2 0-42.3C312.9 260.8 297.9 260.7 297.9 270.4L297.9 270.4zM297.9 358.8c0 18.8 0 37.6 0 56.4 0 9.7 15 9.7 15 0 0-18.8 0-37.6 0-56.4C312.9 349.1 297.9 349.1 297.9 358.8L297.9 358.8zM419.8 147c-26.8 0-53.6 0-80.4 0-9.7 0-9.7 15 0 15 26.8 0 53.6 0 80.4 0C429.5 162 429.5 147 419.8 147L419.8 147z"></path><path d="M419.8 181.3c-26.8 0-53.6 0-80.4 0-9.7 0-9.7 15 0 15 26.8 0 53.6 0 80.4 0C429.5 196.3 429.5 181.3 419.8 181.3L419.8 181.3zM366.4 346.9c8.8 0 17.6 0 26.4 0 9.7 0 9.7-15 0-15-8.8 0-17.6 0-26.4 0C356.8 331.9 356.8 346.9 366.4 346.9L366.4 346.9z"></path><g><path d="M366.4,373.6c8.8,0,17.6,0,26.4,0c9.7,0,9.7-15,0-15c-8.8,0-17.6,0-26.4,0C356.8,358.6,356.8,373.6,366.4,373.6
				L366.4,373.6z"></path></g><g><path d="M366.4,400.3c8.8,0,17.6,0,26.4,0c9.7,0,9.7-15,0-15c-8.8,0-17.6,0-26.4,0C356.8,385.3,356.8,400.3,366.4,400.3
				L366.4,400.3z"></path></g><g><path d="M495.9 222.4c-25.4 0-50.7 0-76.1 0-9.7 0-9.7 15 0 15 25.4 0 50.7 0 76.1 0C505.5 237.4 505.5 222.4 495.9 222.4L495.9 222.4zM495.9 256.8c-25.4 0-50.7 0-76.1 0-9.7 0-9.7 15 0 15 25.4 0 50.7 0 76.1 0C505.5 271.8 505.5 256.8 495.9 256.8L495.9 256.8z"></path></g><g><path d="M495.9 358.6c-25.4 0-50.7 0-76.1 0-9.7 0-9.7 15 0 15 25.4 0 50.7 0 76.1 0C505.5 373.6 505.5 358.6 495.9 358.6L495.9 358.6zM495.9 393c-25.4 0-50.7 0-76.1 0-9.7 0-9.7 15 0 15 25.4 0 50.7 0 76.1 0C505.5 408 505.5 393 495.9 393L495.9 393z"></path></g></svg>